<svg xmlns="http://www.w3.org/2000/svg" xmlns:xlink="http://www.w3.org/1999/xlink" version="1.2" viewBox="57.71 7.06 267.29 364.94">
<defs>
<clipPath id="clip1">
  <path d="M 156 7.058594 L 203 7.058594 L 203 54 L 156 54 Z M 156 7.058594 "/>
</clipPath>
<clipPath id="clip2">
  <path d="M 57.714844 29 L 325 29 L 325 372 L 57.714844 372 Z M 57.714844 29 "/>
</clipPath>
</defs>
<g id="surface1">
<g clip-path="url(#clip1)" clip-rule="nonzero">
<path style=" stroke:none;fill-rule:nonzero;fill:rgb(27.449036%,47.839355%,66.668701%);fill-opacity:1;" d="M 176.792969 7.265625 C 173.6875 7.703125 169.46875 9.34375 166.773438 11.191406 C 162.351562 14.238281 159.390625 18.425781 157.722656 23.964844 C 156.667969 27.480469 156.609375 32.429688 157.574219 35.917969 C 160.476562 46.347656 169.144531 53.054688 179.722656 53.113281 C 186.105469 53.144531 191.730469 50.859375 196.125 46.464844 C 200.519531 42.070312 202.832031 36.386719 202.804688 30.058594 C 202.746094 18.835938 195.042969 9.609375 183.9375 7.5 C 181.714844 7.089844 178.8125 7 176.792969 7.265625 Z M 176.792969 7.265625 "/>
</g>
<g clip-path="url(#clip2)" clip-rule="nonzero">
<path style=" stroke:none;fill-rule:nonzero;fill:rgb(27.449036%,47.839355%,66.668701%);fill-opacity:1;" d="M 127.082031 32.109375 C 125.910156 33.660156 124.941406 35.039062 124.941406 35.183594 C 124.941406 35.332031 126.320312 36.5625 128.019531 37.910156 C 134.726562 43.269531 139.941406 48.542969 141.464844 51.53125 C 142.402344 53.378906 143.867188 58.035156 144.597656 61.550781 C 147.351562 74.648438 146.855469 92.636719 143.222656 112.820312 C 141.609375 121.699219 139.238281 129.871094 135.691406 138.75 C 129.453125 154.394531 121.894531 168.457031 103.121094 199.421875 C 82.730469 232.996094 75.203125 246.824219 68.085938 263.933594 C 58.914062 285.90625 55.695312 307.234375 59.179688 322.734375 C 62.429688 337.207031 70.546875 350.828125 79.390625 356.71875 C 91.078125 364.480469 113.253906 369.082031 147.9375 370.984375 C 157.488281 371.484375 226.679688 371.484375 235.230469 370.984375 C 263.46875 369.285156 282.042969 366.0625 294.636719 360.644531 C 302.78125 357.15625 307.496094 353.203125 312.566406 345.644531 C 313.824219 343.738281 314.9375 342.246094 315.027344 342.273438 C 315.085938 342.332031 315.261719 342.246094 315.40625 342.097656 C 315.554688 341.953125 315.496094 341.921875 315.289062 342.039062 C 314.703125 342.363281 314.851562 341.921875 315.90625 340.078125 C 316.433594 339.167969 316.960938 338.496094 317.078125 338.613281 C 317.195312 338.730469 317.195312 338.640625 317.105469 338.378906 C 317.019531 338.144531 317.371094 337.03125 317.867188 335.917969 C 318.367188 334.773438 319.246094 332.664062 319.800781 331.230469 C 320.328125 329.765625 320.710938 328.972656 320.621094 329.441406 C 320.503906 329.910156 319.917969 331.640625 319.246094 333.25 C 317.78125 336.941406 317.664062 337.351562 318.394531 336.035156 C 320.535156 332.167969 323.082031 323.847656 324.164062 317.167969 C 324.867188 312.890625 324.867188 303.191406 324.164062 297.976562 C 321.96875 281.863281 317.046875 267.039062 307.410156 247.585938 C 301.316406 235.28125 294.960938 224.0625 280.402344 200.097656 C 266.457031 177.070312 260.746094 167.050781 255.0625 155.742188 C 244.75 135.085938 240.152344 120.46875 237.722656 100.429688 C 235.203125 79.773438 236.316406 62.605469 240.886719 52.441406 C 241.792969 50.359375 243.523438 47.636719 244.722656 46.347656 C 245.21875 45.789062 245.453125 45.46875 245.21875 45.585938 C 243.433594 46.609375 247.945312 42.363281 253.101562 38.171875 C 254.800781 36.796875 256.292969 35.566406 256.441406 35.449219 C 256.703125 35.214844 252.25 29.265625 251.898438 29.382812 C 251.3125 29.589844 244.898438 34.890625 241.707031 37.820312 C 237.925781 41.308594 234.585938 45.203125 233.210938 47.78125 C 231.101562 51.765625 228.992188 59.824219 227.996094 67.851562 C 227.292969 73.535156 227.292969 88.621094 228.027344 95.683594 C 230.601562 121.023438 235.027344 136.113281 246.65625 159.433594 C 252.484375 171.0625 258.375 181.375 273.988281 207.15625 L 281.191406 219.023438 L 190.792969 219.109375 C 141.054688 219.140625 100.335938 219.109375 100.25 219.023438 C 100.160156 218.964844 102.125 215.566406 104.582031 211.492188 C 125.03125 177.65625 128.105469 172.351562 134.582031 159.402344 C 146.003906 136.550781 150.398438 121.699219 153.0625 97 C 153.679688 91.347656 153.972656 76.875 153.53125 71.746094 C 152.742188 61.785156 150.808594 53.464844 147.96875 47.8125 C 145.886719 43.738281 139.296875 37.058594 131.035156 30.703125 L 129.21875 29.324219 Z M 244.898438 45.820312 C 244.898438 45.847656 244.195312 46.550781 243.375 47.34375 L 241.824219 48.808594 L 243.289062 47.253906 C 244.632812 45.847656 244.898438 45.585938 244.898438 45.820312 Z M 241.324219 49.832031 C 240.679688 50.710938 240.300781 51.035156 240.679688 50.332031 C 240.945312 49.863281 241.734375 48.953125 241.882812 48.953125 C 241.941406 48.953125 241.707031 49.335938 241.324219 49.832031 Z M 240.152344 51.738281 C 239.976562 52.148438 239.773438 52.410156 239.714844 52.351562 C 239.566406 52.207031 240.152344 51.003906 240.359375 51.003906 C 240.445312 51.003906 240.328125 51.328125 240.152344 51.738281 Z M 236.609375 63.953125 C 236.519531 64.160156 236.460938 64.011719 236.460938 63.601562 C 236.460938 63.191406 236.519531 63.046875 236.609375 63.222656 C 236.667969 63.425781 236.667969 63.777344 236.609375 63.953125 Z M 236.316406 65.710938 C 236.226562 65.945312 236.140625 65.859375 236.140625 65.535156 C 236.109375 65.214844 236.199219 65.039062 236.285156 65.15625 C 236.375 65.242188 236.402344 65.507812 236.316406 65.710938 Z M 236.023438 67.617188 C 235.933594 67.910156 235.875 67.734375 235.875 67.265625 C 235.875 66.765625 235.933594 66.5625 236.023438 66.738281 C 236.082031 66.941406 236.082031 67.351562 236.023438 67.617188 Z M 235.730469 70.839844 C 235.640625 71.132812 235.582031 70.957031 235.582031 70.488281 C 235.582031 69.988281 235.640625 69.785156 235.730469 69.960938 C 235.789062 70.164062 235.789062 70.574219 235.730469 70.839844 Z M 235.4375 74.207031 C 235.378906 74.589844 235.320312 74.296875 235.320312 73.5625 C 235.320312 72.832031 235.378906 72.539062 235.4375 72.890625 C 235.496094 73.269531 235.496094 73.855469 235.4375 74.207031 Z M 235.4375 89.441406 C 235.378906 89.824219 235.320312 89.53125 235.320312 88.796875 C 235.320312 88.066406 235.378906 87.773438 235.4375 88.125 C 235.496094 88.503906 235.496094 89.089844 235.4375 89.441406 Z M 235.730469 93.105469 C 235.640625 93.398438 235.582031 93.164062 235.582031 92.605469 C 235.582031 92.050781 235.640625 91.816406 235.730469 92.078125 C 235.789062 92.371094 235.789062 92.839844 235.730469 93.105469 Z M 236.023438 96.914062 C 235.933594 97.207031 235.875 97.03125 235.875 96.5625 C 235.875 96.0625 235.933594 95.859375 236.023438 96.035156 C 236.082031 96.238281 236.082031 96.648438 236.023438 96.914062 Z M 236.316406 99.109375 C 236.226562 99.316406 236.167969 99.167969 236.167969 98.757812 C 236.167969 98.347656 236.226562 98.203125 236.316406 98.378906 C 236.375 98.582031 236.375 98.933594 236.316406 99.109375 Z M 236.609375 101.746094 C 236.519531 101.980469 236.433594 101.894531 236.433594 101.570312 C 236.402344 101.25 236.492188 101.074219 236.578125 101.191406 C 236.667969 101.277344 236.695312 101.542969 236.609375 101.746094 Z M 236.902344 103.503906 C 236.8125 103.738281 236.726562 103.652344 236.726562 103.328125 C 236.695312 103.007812 236.785156 102.832031 236.871094 102.949219 C 236.960938 103.035156 236.988281 103.300781 236.902344 103.503906 Z M 237.195312 105.847656 C 237.105469 106.082031 237.019531 105.996094 237.019531 105.671875 C 236.988281 105.351562 237.078125 105.175781 237.164062 105.292969 C 237.253906 105.378906 237.28125 105.644531 237.195312 105.847656 Z M 237.488281 107.605469 C 237.398438 107.839844 237.3125 107.753906 237.3125 107.429688 C 237.28125 107.109375 237.371094 106.933594 237.457031 107.050781 C 237.546875 107.136719 237.574219 107.402344 237.488281 107.605469 Z M 238.074219 111.121094 C 237.984375 111.355469 237.898438 111.269531 237.898438 110.945312 C 237.867188 110.625 237.957031 110.449219 238.042969 110.566406 C 238.132812 110.652344 238.160156 110.917969 238.074219 111.121094 Z M 238.660156 114.34375 C 238.570312 114.578125 238.484375 114.492188 238.484375 114.167969 C 238.453125 113.847656 238.542969 113.671875 238.628906 113.789062 C 238.71875 113.875 238.746094 114.140625 238.660156 114.34375 Z M 300.847656 237.332031 C 301.023438 237.65625 301.082031 237.917969 301.023438 237.917969 C 300.9375 237.917969 300.730469 237.65625 300.554688 237.332031 C 300.378906 237.011719 300.320312 236.746094 300.378906 236.746094 C 300.46875 236.746094 300.671875 237.011719 300.847656 237.332031 Z M 308.464844 252.421875 C 308.464844 252.566406 308.316406 252.507812 308.171875 252.273438 C 308.023438 252.039062 307.878906 251.6875 307.878906 251.542969 C 307.878906 251.367188 308.023438 251.453125 308.171875 251.6875 C 308.316406 251.921875 308.464844 252.246094 308.464844 252.421875 Z M 317.253906 273.515625 C 317.253906 273.660156 317.105469 273.601562 316.960938 273.367188 C 316.8125 273.132812 316.667969 272.78125 316.667969 272.636719 C 316.667969 272.460938 316.8125 272.546875 316.960938 272.78125 C 317.105469 273.015625 317.253906 273.339844 317.253906 273.515625 Z M 321.558594 289.539062 C 321.472656 289.773438 321.382812 289.6875 321.382812 289.363281 C 321.355469 289.042969 321.441406 288.867188 321.53125 288.984375 C 321.617188 289.070312 321.648438 289.335938 321.558594 289.539062 Z M 321.851562 290.710938 C 321.765625 290.945312 321.675781 290.859375 321.675781 290.535156 C 321.648438 290.214844 321.734375 290.039062 321.824219 290.15625 C 321.910156 290.242188 321.9375 290.507812 321.851562 290.710938 Z M 322.4375 293.933594 C 322.347656 294.140625 322.289062 293.992188 322.289062 293.582031 C 322.289062 293.171875 322.347656 293.027344 322.4375 293.203125 C 322.496094 293.40625 322.496094 293.757812 322.4375 293.933594 Z M 322.730469 295.984375 C 322.640625 296.21875 322.554688 296.132812 322.554688 295.808594 C 322.523438 295.488281 322.613281 295.3125 322.699219 295.429688 C 322.789062 295.515625 322.816406 295.78125 322.730469 295.984375 Z M 323.023438 297.742188 C 322.933594 297.976562 322.847656 297.890625 322.847656 297.566406 C 322.816406 297.246094 322.90625 297.070312 322.992188 297.1875 C 323.082031 297.273438 323.109375 297.539062 323.023438 297.742188 Z M 323.316406 300.234375 C 323.226562 300.527344 323.167969 300.351562 323.167969 299.882812 C 323.167969 299.382812 323.226562 299.179688 323.316406 299.355469 C 323.375 299.558594 323.375 299.96875 323.316406 300.234375 Z M 323.609375 303.308594 C 323.550781 303.691406 323.492188 303.398438 323.492188 302.664062 C 323.492188 301.933594 323.550781 301.640625 323.609375 301.992188 C 323.667969 302.371094 323.667969 302.957031 323.609375 303.308594 Z M 323.902344 311.511719 C 323.84375 312.539062 323.8125 311.777344 323.8125 309.84375 C 323.8125 307.910156 323.84375 307.089844 323.902344 307.996094 C 323.960938 308.933594 323.960938 310.515625 323.902344 311.511719 Z M 323.609375 316.492188 C 323.550781 316.875 323.492188 316.640625 323.492188 315.996094 C 323.460938 315.351562 323.519531 315.058594 323.609375 315.320312 C 323.667969 315.613281 323.667969 316.140625 323.609375 316.492188 Z M 323.316406 318.398438 C 323.226562 318.691406 323.167969 318.515625 323.167969 318.046875 C 323.167969 317.546875 323.226562 317.34375 323.316406 317.519531 C 323.375 317.722656 323.375 318.132812 323.316406 318.398438 Z M 323.023438 320.15625 C 322.933594 320.449219 322.875 320.273438 322.875 319.804688 C 322.875 319.304688 322.933594 319.101562 323.023438 319.277344 C 323.082031 319.480469 323.082031 319.890625 323.023438 320.15625 Z M 322.523438 322.734375 C 322.347656 323.640625 322.113281 324.34375 322.054688 324.257812 C 321.996094 324.199219 322.085938 323.40625 322.261719 322.46875 C 322.464844 321.5625 322.671875 320.886719 322.730469 320.945312 C 322.816406 321.003906 322.699219 321.824219 322.523438 322.734375 Z M 321.851562 325.28125 C 321.765625 325.515625 321.675781 325.429688 321.675781 325.105469 C 321.648438 324.785156 321.734375 324.609375 321.824219 324.726562 C 321.910156 324.8125 321.9375 325.078125 321.851562 325.28125 Z M 321.355469 327.273438 C 321.179688 327.949219 320.972656 328.445312 320.914062 328.386719 C 320.855469 328.328125 320.945312 327.714844 321.121094 327.039062 C 321.296875 326.335938 321.5 325.839844 321.558594 325.925781 C 321.617188 325.984375 321.53125 326.601562 321.355469 327.273438 Z M 321.355469 327.273438 "/>
</g>
<path style=" stroke:none;fill-rule:nonzero;fill:rgb(27.449036%,47.839355%,66.668701%);fill-opacity:1;" d="M 199.785156 67.410156 C 186.164062 69.519531 180.71875 85.898438 190.382812 95.566406 C 196.066406 101.25 204.621094 102.070312 211.328125 97.558594 C 218.328125 92.898438 220.644531 83.613281 216.71875 76.082031 C 215.457031 73.710938 212.148438 70.371094 209.863281 69.226562 C 206.613281 67.585938 202.949219 66.941406 199.785156 67.410156 Z M 199.785156 67.410156 "/>
<path style=" stroke:none;fill-rule:nonzero;fill:rgb(27.449036%,47.839355%,66.668701%);fill-opacity:1;" d="M 178.578125 120.320312 C 174.242188 121.375 170.40625 124.453125 168.414062 128.496094 C 167.035156 131.335938 166.566406 133.621094 166.773438 136.582031 C 167.183594 142.03125 170.492188 146.953125 175.328125 149.296875 C 182.296875 152.722656 190.617188 150.554688 194.925781 144.226562 C 196.652344 141.679688 197.472656 139.363281 197.648438 136.257812 C 198.261719 126.003906 188.566406 117.890625 178.578125 120.320312 Z M 178.578125 120.320312 "/>
<path style=" stroke:none;fill-rule:nonzero;fill:rgb(27.449036%,47.839355%,66.668701%);fill-opacity:1;" d="M 202.101562 171.824219 C 198.585938 172.851562 195.714844 175.28125 194.132812 178.679688 C 193.402344 180.261719 193.195312 181.113281 193.109375 183.132812 C 192.875 188.378906 195.480469 192.65625 200.34375 194.96875 C 202.128906 195.789062 202.511719 195.878906 205.207031 195.878906 C 207.519531 195.847656 208.457031 195.730469 209.746094 195.203125 C 214.550781 193.300781 217.507812 188.90625 217.507812 183.71875 C 217.507812 178.59375 214.460938 174.082031 209.746094 172.265625 C 207.753906 171.472656 204.003906 171.269531 202.101562 171.824219 Z M 202.101562 171.824219 "/>
<path style=" stroke:none;fill-rule:nonzero;fill:rgb(27.449036%,47.839355%,66.668701%);fill-opacity:1;" d="M 316.550781 339.492188 C 316.375 339.902344 316.402344 339.929688 316.695312 339.667969 C 316.902344 339.460938 316.988281 339.226562 316.902344 339.140625 C 316.8125 339.050781 316.636719 339.199219 316.550781 339.492188 Z M 316.550781 339.492188 "/>
<path style=" stroke:none;fill-rule:nonzero;fill:rgb(27.449036%,47.839355%,66.668701%);fill-opacity:1;" d="M 315.964844 340.664062 C 315.789062 341.074219 315.816406 341.101562 316.109375 340.839844 C 316.316406 340.632812 316.402344 340.398438 316.316406 340.3125 C 316.226562 340.222656 316.050781 340.371094 315.964844 340.664062 Z M 315.964844 340.664062 "/>
<path style=" stroke:none;fill-rule:nonzero;fill:rgb(100%,0%,0%);fill-opacity:1;" d="M 202.671875 66.578125 C 202.082031 66.578125 201.492188 66.609375 200.90625 66.664062 C 200.320312 66.722656 199.738281 66.808594 199.160156 66.925781 C 198.582031 67.039062 198.007812 67.183594 197.445312 67.355469 C 196.878906 67.527344 196.324219 67.722656 195.78125 67.949219 C 195.234375 68.175781 194.703125 68.425781 194.183594 68.703125 C 193.664062 68.984375 193.160156 69.285156 192.667969 69.613281 C 192.179688 69.941406 191.703125 70.292969 191.25 70.667969 C 190.792969 71.039062 190.355469 71.4375 189.941406 71.851562 C 189.523438 72.269531 189.128906 72.707031 188.753906 73.160156 C 188.378906 73.617188 188.027344 74.089844 187.699219 74.582031 C 187.371094 75.070312 187.070312 75.578125 186.792969 76.097656 C 186.515625 76.617188 186.261719 77.148438 186.035156 77.695312 C 185.8125 78.238281 185.613281 78.792969 185.441406 79.359375 C 185.269531 79.921875 185.125 80.492188 185.011719 81.074219 C 184.898438 81.652344 184.808594 82.234375 184.753906 82.820312 C 184.695312 83.40625 184.664062 83.996094 184.664062 84.585938 C 184.664062 85.175781 184.695312 85.761719 184.753906 86.351562 C 184.808594 86.9375 184.898438 87.519531 185.011719 88.097656 C 185.125 88.675781 185.269531 89.246094 185.441406 89.8125 C 185.613281 90.375 185.8125 90.929688 186.035156 91.476562 C 186.261719 92.019531 186.515625 92.554688 186.792969 93.074219 C 187.070312 93.59375 187.371094 94.097656 187.699219 94.589844 C 188.027344 95.078125 188.378906 95.550781 188.753906 96.007812 C 189.128906 96.464844 189.523438 96.898438 189.941406 97.316406 C 190.355469 97.734375 190.792969 98.128906 191.25 98.503906 C 191.703125 98.878906 192.179688 99.230469 192.667969 99.558594 C 193.160156 99.882812 193.664062 100.1875 194.183594 100.464844 C 194.703125 100.742188 195.234375 100.996094 195.78125 101.21875 C 196.324219 101.445312 196.878906 101.644531 197.445312 101.816406 C 198.007812 101.988281 198.582031 102.128906 199.160156 102.246094 C 199.738281 102.359375 200.320312 102.445312 200.90625 102.503906 C 201.492188 102.5625 202.082031 102.589844 202.671875 102.589844 C 203.261719 102.589844 203.851562 102.5625 204.4375 102.503906 C 205.023438 102.445312 205.605469 102.359375 206.183594 102.246094 C 206.761719 102.128906 207.335938 101.988281 207.898438 101.816406 C 208.464844 101.644531 209.019531 101.445312 209.5625 101.21875 C 210.105469 100.996094 210.640625 100.742188 211.160156 100.464844 C 211.679688 100.1875 212.183594 99.882812 212.675781 99.558594 C 213.164062 99.230469 213.640625 98.878906 214.09375 98.503906 C 214.550781 98.128906 214.988281 97.734375 215.402344 97.316406 C 215.820312 96.898438 216.214844 96.464844 216.589844 96.007812 C 216.964844 95.550781 217.316406 95.078125 217.644531 94.589844 C 217.972656 94.097656 218.273438 93.59375 218.550781 93.074219 C 218.828125 92.554688 219.082031 92.019531 219.308594 91.476562 C 219.53125 90.929688 219.730469 90.375 219.902344 89.8125 C 220.074219 89.246094 220.21875 88.675781 220.332031 88.097656 C 220.445312 87.519531 220.535156 86.9375 220.589844 86.351562 C 220.648438 85.761719 220.679688 85.175781 220.679688 84.585938 C 220.679688 83.996094 220.648438 83.40625 220.589844 82.820312 C 220.535156 82.234375 220.445312 81.652344 220.332031 81.074219 C 220.21875 80.492188 220.074219 79.921875 219.902344 79.359375 C 219.730469 78.792969 219.53125 78.238281 219.308594 77.695312 C 219.082031 77.148438 218.828125 76.617188 218.550781 76.097656 C 218.273438 75.578125 217.972656 75.070312 217.644531 74.582031 C 217.316406 74.089844 216.964844 73.617188 216.589844 73.160156 C 216.214844 72.707031 215.820312 72.269531 215.402344 71.851562 C 214.988281 71.4375 214.550781 71.039062 214.09375 70.667969 C 213.640625 70.292969 213.164062 69.941406 212.675781 69.613281 C 212.183594 69.285156 211.679688 68.984375 211.160156 68.703125 C 210.640625 68.425781 210.105469 68.175781 209.5625 67.949219 C 209.019531 67.722656 208.464844 67.527344 207.898438 67.355469 C 207.335938 67.183594 206.761719 67.039062 206.183594 66.925781 C 205.605469 66.808594 205.023438 66.722656 204.4375 66.664062 C 203.851562 66.609375 203.261719 66.578125 202.671875 66.578125 Z M 202.671875 66.578125 "/>
<path style=" stroke:none;fill-rule:nonzero;fill:rgb(10.978699%,59.999084%,10.978699%);fill-opacity:1;" d="M 181.78125 119.6875 C 180.742188 119.6875 179.714844 119.789062 178.695312 119.988281 C 177.675781 120.191406 176.6875 120.492188 175.726562 120.890625 C 174.765625 121.289062 173.851562 121.777344 172.988281 122.351562 C 172.125 122.929688 171.324219 123.585938 170.589844 124.320312 C 169.855469 125.054688 169.199219 125.855469 168.625 126.71875 C 168.046875 127.582031 167.558594 128.496094 167.160156 129.457031 C 166.761719 130.414062 166.464844 131.40625 166.261719 132.425781 C 166.058594 133.441406 165.957031 134.472656 165.957031 135.511719 C 165.957031 136.550781 166.058594 137.578125 166.261719 138.597656 C 166.464844 139.617188 166.761719 140.609375 167.160156 141.566406 C 167.558594 142.527344 168.046875 143.441406 168.625 144.304688 C 169.199219 145.167969 169.855469 145.96875 170.589844 146.703125 C 171.324219 147.4375 172.125 148.09375 172.988281 148.671875 C 173.851562 149.246094 174.765625 149.734375 175.726562 150.132812 C 176.6875 150.53125 177.675781 150.832031 178.695312 151.03125 C 179.714844 151.234375 180.742188 151.335938 181.78125 151.335938 C 182.820312 151.335938 183.851562 151.234375 184.871094 151.03125 C 185.886719 150.832031 186.878906 150.53125 187.839844 150.132812 C 188.796875 149.734375 189.710938 149.246094 190.574219 148.671875 C 191.4375 148.09375 192.238281 147.4375 192.972656 146.703125 C 193.707031 145.96875 194.363281 145.167969 194.941406 144.304688 C 195.519531 143.441406 196.003906 142.527344 196.402344 141.566406 C 196.800781 140.609375 197.101562 139.617188 197.304688 138.597656 C 197.507812 137.578125 197.605469 136.550781 197.605469 135.511719 C 197.605469 134.472656 197.507812 133.441406 197.304688 132.425781 C 197.101562 131.40625 196.800781 130.414062 196.402344 129.457031 C 196.003906 128.496094 195.519531 127.582031 194.941406 126.71875 C 194.363281 125.855469 193.707031 125.054688 192.972656 124.320312 C 192.238281 123.585938 191.4375 122.929688 190.574219 122.351562 C 189.710938 121.777344 188.796875 121.289062 187.839844 120.890625 C 186.878906 120.492188 185.886719 120.191406 184.871094 119.988281 C 183.851562 119.789062 182.820312 119.6875 181.78125 119.6875 Z M 181.78125 119.6875 "/>
<path style=" stroke:none;fill-rule:nonzero;fill:rgb(100%,41.958618%,0%);fill-opacity:1;" d="M 205.964844 170.535156 C 205 170.535156 204.042969 170.628906 203.09375 170.820312 C 202.148438 171.007812 201.226562 171.285156 200.335938 171.65625 C 199.441406 172.027344 198.59375 172.480469 197.792969 173.015625 C 196.988281 173.550781 196.246094 174.164062 195.5625 174.84375 C 194.878906 175.527344 194.269531 176.273438 193.730469 177.074219 C 193.195312 177.878906 192.742188 178.726562 192.371094 179.617188 C 192.003906 180.511719 191.722656 181.429688 191.535156 182.378906 C 191.347656 183.324219 191.253906 184.28125 191.253906 185.25 C 191.253906 186.214844 191.347656 187.171875 191.535156 188.121094 C 191.722656 189.066406 192.003906 189.988281 192.371094 190.878906 C 192.742188 191.773438 193.195312 192.621094 193.730469 193.421875 C 194.269531 194.226562 194.878906 194.96875 195.5625 195.652344 C 196.246094 196.335938 196.988281 196.945312 197.792969 197.480469 C 198.59375 198.019531 199.441406 198.472656 200.335938 198.84375 C 201.226562 199.210938 202.148438 199.492188 203.09375 199.679688 C 204.042969 199.867188 205 199.960938 205.964844 199.960938 C 206.929688 199.960938 207.886719 199.867188 208.835938 199.679688 C 209.78125 199.492188 210.703125 199.210938 211.59375 198.84375 C 212.488281 198.472656 213.335938 198.019531 214.140625 197.480469 C 214.941406 196.945312 215.6875 196.335938 216.367188 195.652344 C 217.050781 194.96875 217.660156 194.226562 218.199219 193.421875 C 218.734375 192.621094 219.1875 191.773438 219.558594 190.878906 C 219.925781 189.988281 220.207031 189.066406 220.394531 188.121094 C 220.582031 187.171875 220.679688 186.214844 220.679688 185.25 C 220.679688 184.28125 220.582031 183.324219 220.394531 182.378906 C 220.207031 181.429688 219.925781 180.511719 219.558594 179.617188 C 219.1875 178.726562 218.734375 177.878906 218.199219 177.074219 C 217.660156 176.273438 217.050781 175.527344 216.367188 174.84375 C 215.6875 174.164062 214.941406 173.550781 214.140625 173.015625 C 213.335938 172.480469 212.488281 172.027344 211.59375 171.65625 C 210.703125 171.285156 209.78125 171.007812 208.835938 170.820312 C 207.886719 170.628906 206.929688 170.535156 205.964844 170.535156 Z M 205.964844 170.535156 "/>
<path style=" stroke:none;fill-rule:nonzero;fill:rgb(100%,73.329163%,0%);fill-opacity:1;" d="M 179.945312 7.058594 C 179.175781 7.058594 178.40625 7.097656 177.640625 7.171875 C 176.875 7.246094 176.113281 7.359375 175.355469 7.511719 C 174.601562 7.660156 173.855469 7.847656 173.117188 8.070312 C 172.378906 8.296875 171.652344 8.554688 170.941406 8.851562 C 170.230469 9.144531 169.535156 9.472656 168.855469 9.835938 C 168.175781 10.199219 167.515625 10.597656 166.875 11.023438 C 166.234375 11.453125 165.613281 11.910156 165.019531 12.398438 C 164.421875 12.890625 163.851562 13.40625 163.308594 13.949219 C 162.761719 14.496094 162.246094 15.066406 161.757812 15.660156 C 161.269531 16.257812 160.808594 16.875 160.382812 17.515625 C 159.953125 18.15625 159.558594 18.816406 159.195312 19.496094 C 158.832031 20.175781 158.503906 20.871094 158.207031 21.585938 C 157.914062 22.296875 157.652344 23.019531 157.429688 23.757812 C 157.207031 24.496094 157.019531 25.242188 156.867188 26 C 156.71875 26.753906 156.605469 27.515625 156.53125 28.28125 C 156.453125 29.050781 156.417969 29.816406 156.417969 30.589844 C 156.417969 31.359375 156.453125 32.128906 156.53125 32.894531 C 156.605469 33.660156 156.71875 34.421875 156.867188 35.179688 C 157.019531 35.933594 157.207031 36.679688 157.429688 37.417969 C 157.652344 38.15625 157.914062 38.882812 158.207031 39.59375 C 158.503906 40.304688 158.832031 41 159.195312 41.679688 C 159.558594 42.359375 159.953125 43.019531 160.382812 43.660156 C 160.808594 44.300781 161.269531 44.917969 161.757812 45.515625 C 162.246094 46.109375 162.761719 46.679688 163.308594 47.226562 C 163.851562 47.769531 164.421875 48.289062 165.019531 48.777344 C 165.613281 49.265625 166.234375 49.726562 166.875 50.152344 C 167.515625 50.582031 168.175781 50.976562 168.855469 51.339844 C 169.535156 51.703125 170.230469 52.03125 170.941406 52.328125 C 171.652344 52.621094 172.378906 52.882812 173.117188 53.105469 C 173.855469 53.328125 174.601562 53.515625 175.355469 53.667969 C 176.113281 53.816406 176.875 53.929688 177.640625 54.003906 C 178.40625 54.082031 179.175781 54.117188 179.945312 54.117188 C 180.71875 54.117188 181.484375 54.082031 182.253906 54.003906 C 183.019531 53.929688 183.78125 53.816406 184.535156 53.667969 C 185.292969 53.515625 186.039062 53.328125 186.777344 53.105469 C 187.515625 52.882812 188.238281 52.621094 188.949219 52.328125 C 189.664062 52.03125 190.359375 51.703125 191.039062 51.339844 C 191.71875 50.976562 192.378906 50.582031 193.019531 50.152344 C 193.660156 49.726562 194.277344 49.265625 194.875 48.777344 C 195.46875 48.289062 196.039062 47.769531 196.585938 47.226562 C 197.128906 46.679688 197.644531 46.109375 198.136719 45.515625 C 198.625 44.917969 199.082031 44.300781 199.511719 43.660156 C 199.9375 43.019531 200.335938 42.359375 200.699219 41.679688 C 201.0625 41 201.390625 40.304688 201.683594 39.59375 C 201.980469 38.882812 202.238281 38.15625 202.464844 37.417969 C 202.6875 36.679688 202.875 35.933594 203.023438 35.179688 C 203.175781 34.421875 203.289062 33.660156 203.363281 32.894531 C 203.4375 32.128906 203.476562 31.359375 203.476562 30.589844 C 203.476562 29.816406 203.4375 29.050781 203.363281 28.28125 C 203.289062 27.515625 203.175781 26.753906 203.023438 26 C 202.875 25.242188 202.6875 24.496094 202.464844 23.757812 C 202.238281 23.019531 201.980469 22.296875 201.683594 21.585938 C 201.390625 20.871094 201.0625 20.175781 200.699219 19.496094 C 200.335938 18.816406 199.9375 18.15625 199.511719 17.515625 C 199.082031 16.875 198.625 16.257812 198.136719 15.660156 C 197.644531 15.066406 197.128906 14.496094 196.585938 13.949219 C 196.039062 13.40625 195.46875 12.890625 194.875 12.398438 C 194.277344 11.910156 193.660156 11.453125 193.019531 11.023438 C 192.378906 10.597656 191.71875 10.199219 191.039062 9.835938 C 190.359375 9.472656 189.664062 9.144531 188.949219 8.851562 C 188.238281 8.554688 187.515625 8.296875 186.777344 8.070312 C 186.039062 7.847656 185.292969 7.660156 184.535156 7.511719 C 183.78125 7.359375 183.019531 7.246094 182.253906 7.171875 C 181.484375 7.097656 180.71875 7.058594 179.945312 7.058594 Z M 179.945312 7.058594 "/>
</g>
</svg>