<?xml version="1.0" encoding="UTF-8"?>
<svg xmlns="http://www.w3.org/2000/svg" xmlns:xlink="http://www.w3.org/1999/xlink" width="375pt" height="374.999991pt" viewBox="0 0 375 374.999991" version="1.2">
<defs>
<clipPath id="clip1">
  <path d="M 162 25.386719 L 205 25.386719 L 205 69 L 162 69 Z M 162 25.386719 "/>
</clipPath>
<clipPath id="clip2">
  <path d="M 69.515625 46 L 319 46 L 319 365 L 69.515625 365 Z M 69.515625 46 "/>
</clipPath>
</defs>
<g id="surface1">
<g clip-path="url(#clip1)" clip-rule="nonzero">
<path style=" stroke:none;fill-rule:nonzero;fill:rgb(27.449036%,47.839355%,66.668701%);fill-opacity:1;" d="M 180.609375 25.578125 C 177.714844 25.988281 173.777344 27.519531 171.261719 29.238281 C 167.136719 32.078125 164.375 35.984375 162.820312 41.144531 C 161.835938 44.417969 161.78125 49.035156 162.683594 52.285156 C 165.386719 62.003906 173.476562 68.257812 183.34375 68.3125 C 189.300781 68.339844 194.546875 66.207031 198.648438 62.113281 C 202.746094 58.015625 204.90625 52.71875 204.878906 46.824219 C 204.824219 36.363281 197.636719 27.765625 187.277344 25.796875 C 185.203125 25.414062 182.496094 25.332031 180.609375 25.578125 Z M 180.609375 25.578125 "/>
</g>
<g clip-path="url(#clip2)" clip-rule="nonzero">
<path style=" stroke:none;fill-rule:nonzero;fill:rgb(27.449036%,47.839355%,66.668701%);fill-opacity:1;" d="M 134.230469 48.734375 C 133.136719 50.179688 132.238281 51.464844 132.238281 51.601562 C 132.238281 51.738281 133.519531 52.882812 135.105469 54.140625 C 141.363281 59.136719 146.230469 64.050781 147.648438 66.835938 C 148.523438 68.558594 149.890625 72.898438 150.574219 76.175781 C 153.144531 88.378906 152.679688 105.144531 149.289062 123.957031 C 147.785156 132.230469 145.574219 139.847656 142.265625 148.121094 C 136.445312 162.703125 129.394531 175.808594 111.875 204.667969 C 92.855469 235.960938 85.832031 248.847656 79.1875 264.792969 C 70.636719 285.273438 67.628906 305.148438 70.882812 319.59375 C 73.914062 333.082031 81.484375 345.777344 89.738281 351.265625 C 100.644531 358.503906 121.332031 362.789062 153.691406 364.5625 C 162.601562 365.027344 227.152344 365.027344 235.132812 364.5625 C 261.480469 362.980469 278.804688 359.976562 290.558594 354.925781 C 298.15625 351.675781 302.554688 347.992188 307.285156 340.945312 C 308.460938 339.171875 309.496094 337.777344 309.578125 337.804688 C 309.632812 337.859375 309.796875 337.777344 309.933594 337.640625 C 310.070312 337.503906 310.015625 337.476562 309.824219 337.585938 C 309.277344 337.886719 309.414062 337.476562 310.398438 335.757812 C 310.890625 334.910156 311.382812 334.285156 311.492188 334.394531 C 311.601562 334.5 311.601562 334.421875 311.519531 334.175781 C 311.4375 333.957031 311.765625 332.917969 312.230469 331.878906 C 312.695312 330.816406 313.515625 328.851562 314.035156 327.511719 C 314.527344 326.148438 314.882812 325.410156 314.800781 325.847656 C 314.691406 326.285156 314.144531 327.894531 313.515625 329.394531 C 312.148438 332.835938 312.039062 333.21875 312.722656 331.988281 C 314.71875 328.386719 317.09375 320.632812 318.105469 314.40625 C 318.761719 310.417969 318.761719 301.382812 318.105469 296.519531 C 316.058594 281.503906 311.464844 267.6875 302.472656 249.558594 C 296.789062 238.089844 290.859375 227.632812 277.277344 205.296875 C 264.265625 183.835938 258.9375 174.496094 253.636719 163.957031 C 244.015625 144.707031 239.726562 131.082031 237.457031 112.40625 C 235.105469 93.15625 236.144531 77.15625 240.40625 67.683594 C 241.253906 65.746094 242.867188 63.207031 243.988281 62.003906 C 244.453125 61.484375 244.671875 61.183594 244.453125 61.292969 C 242.785156 62.25 246.996094 58.289062 251.804688 54.386719 C 253.390625 53.101562 254.785156 51.957031 254.921875 51.847656 C 255.164062 51.628906 251.011719 46.085938 250.683594 46.195312 C 250.136719 46.386719 244.152344 51.328125 241.171875 54.058594 C 237.648438 57.308594 234.53125 60.9375 233.246094 63.339844 C 231.28125 67.054688 229.3125 74.5625 228.382812 82.046875 C 227.726562 87.34375 227.726562 101.402344 228.410156 107.984375 C 230.816406 131.601562 234.941406 145.664062 245.792969 167.398438 C 251.230469 178.238281 256.722656 187.851562 271.289062 211.878906 L 278.015625 222.9375 L 193.675781 223.019531 C 147.269531 223.046875 109.277344 223.019531 109.199219 222.9375 C 109.117188 222.882812 110.945312 219.714844 113.242188 215.917969 C 132.316406 184.382812 135.1875 179.441406 141.226562 167.371094 C 151.886719 146.074219 155.984375 132.230469 158.472656 109.214844 C 159.046875 103.941406 159.320312 90.453125 158.910156 85.675781 C 158.171875 76.394531 156.367188 68.640625 153.71875 63.367188 C 151.777344 59.574219 145.628906 53.347656 137.921875 47.421875 L 136.226562 46.140625 Z M 244.152344 61.511719 C 244.152344 61.539062 243.496094 62.195312 242.730469 62.933594 L 241.28125 64.296875 L 242.648438 62.851562 C 243.90625 61.539062 244.152344 61.292969 244.152344 61.511719 Z M 240.816406 65.253906 C 240.214844 66.070312 239.859375 66.371094 240.214844 65.71875 C 240.460938 65.28125 241.199219 64.433594 241.335938 64.433594 C 241.390625 64.433594 241.171875 64.789062 240.816406 65.253906 Z M 239.726562 67.027344 C 239.5625 67.410156 239.371094 67.65625 239.316406 67.601562 C 239.179688 67.464844 239.726562 66.34375 239.914062 66.34375 C 239.996094 66.34375 239.886719 66.644531 239.726562 67.027344 Z M 236.417969 78.414062 C 236.335938 78.605469 236.28125 78.46875 236.28125 78.085938 C 236.28125 77.703125 236.335938 77.566406 236.417969 77.730469 C 236.472656 77.921875 236.472656 78.25 236.417969 78.414062 Z M 236.144531 80.050781 C 236.0625 80.269531 235.980469 80.1875 235.980469 79.886719 C 235.953125 79.585938 236.035156 79.425781 236.117188 79.53125 C 236.199219 79.613281 236.226562 79.859375 236.144531 80.050781 Z M 235.871094 81.828125 C 235.789062 82.101562 235.734375 81.9375 235.734375 81.5 C 235.734375 81.035156 235.789062 80.84375 235.871094 81.007812 C 235.925781 81.199219 235.925781 81.582031 235.871094 81.828125 Z M 235.597656 84.832031 C 235.515625 85.101562 235.460938 84.941406 235.460938 84.503906 C 235.460938 84.039062 235.515625 83.847656 235.597656 84.011719 C 235.652344 84.203125 235.652344 84.585938 235.597656 84.832031 Z M 235.324219 87.96875 C 235.269531 88.324219 235.214844 88.050781 235.214844 87.371094 C 235.214844 86.6875 235.269531 86.414062 235.324219 86.742188 C 235.378906 87.097656 235.378906 87.644531 235.324219 87.96875 Z M 235.324219 102.167969 C 235.269531 102.523438 235.214844 102.25 235.214844 101.566406 C 235.214844 100.886719 235.269531 100.613281 235.324219 100.941406 C 235.378906 101.292969 235.378906 101.839844 235.324219 102.167969 Z M 235.597656 105.582031 C 235.515625 105.855469 235.460938 105.636719 235.460938 105.117188 C 235.460938 104.597656 235.515625 104.378906 235.597656 104.625 C 235.652344 104.898438 235.652344 105.335938 235.597656 105.582031 Z M 235.871094 109.132812 C 235.789062 109.402344 235.734375 109.242188 235.734375 108.804688 C 235.734375 108.339844 235.789062 108.148438 235.871094 108.3125 C 235.925781 108.503906 235.925781 108.886719 235.871094 109.132812 Z M 236.144531 111.179688 C 236.0625 111.371094 236.007812 111.234375 236.007812 110.851562 C 236.007812 110.46875 236.0625 110.332031 236.144531 110.496094 C 236.199219 110.6875 236.199219 111.015625 236.144531 111.179688 Z M 236.417969 113.636719 C 236.335938 113.855469 236.253906 113.773438 236.253906 113.472656 C 236.226562 113.171875 236.308594 113.007812 236.390625 113.117188 C 236.472656 113.199219 236.5 113.445312 236.417969 113.636719 Z M 236.691406 115.273438 C 236.609375 115.492188 236.527344 115.410156 236.527344 115.109375 C 236.5 114.808594 236.582031 114.648438 236.664062 114.757812 C 236.746094 114.835938 236.773438 115.082031 236.691406 115.273438 Z M 236.964844 117.460938 C 236.882812 117.675781 236.800781 117.59375 236.800781 117.296875 C 236.773438 116.996094 236.855469 116.832031 236.9375 116.941406 C 237.019531 117.023438 237.046875 117.269531 236.964844 117.460938 Z M 237.238281 119.097656 C 237.15625 119.316406 237.074219 119.234375 237.074219 118.933594 C 237.046875 118.632812 237.128906 118.46875 237.210938 118.578125 C 237.292969 118.660156 237.320312 118.90625 237.238281 119.097656 Z M 237.785156 122.375 C 237.703125 122.59375 237.621094 122.511719 237.621094 122.210938 C 237.59375 121.910156 237.675781 121.746094 237.757812 121.855469 C 237.839844 121.9375 237.867188 122.183594 237.785156 122.375 Z M 238.332031 125.378906 C 238.25 125.597656 238.167969 125.515625 238.167969 125.214844 C 238.140625 124.914062 238.222656 124.75 238.304688 124.859375 C 238.386719 124.941406 238.414062 125.1875 238.332031 125.378906 Z M 296.351562 240 C 296.515625 240.300781 296.570312 240.546875 296.515625 240.546875 C 296.433594 240.546875 296.242188 240.300781 296.078125 240 C 295.914062 239.699219 295.859375 239.457031 295.914062 239.457031 C 295.996094 239.457031 296.1875 239.699219 296.351562 240 Z M 303.457031 254.0625 C 303.457031 254.199219 303.320312 254.144531 303.183594 253.925781 C 303.046875 253.707031 302.910156 253.378906 302.910156 253.242188 C 302.910156 253.082031 303.046875 253.160156 303.183594 253.378906 C 303.320312 253.597656 303.457031 253.898438 303.457031 254.0625 Z M 311.65625 273.722656 C 311.65625 273.859375 311.519531 273.804688 311.382812 273.585938 C 311.246094 273.367188 311.109375 273.039062 311.109375 272.902344 C 311.109375 272.738281 311.246094 272.820312 311.382812 273.039062 C 311.519531 273.257812 311.65625 273.558594 311.65625 273.722656 Z M 315.675781 288.65625 C 315.59375 288.875 315.511719 288.792969 315.511719 288.492188 C 315.484375 288.195312 315.566406 288.03125 315.648438 288.140625 C 315.730469 288.222656 315.757812 288.464844 315.675781 288.65625 Z M 315.949219 289.75 C 315.867188 289.96875 315.785156 289.886719 315.785156 289.585938 C 315.757812 289.285156 315.839844 289.121094 315.921875 289.230469 C 316.003906 289.3125 316.03125 289.558594 315.949219 289.75 Z M 316.496094 292.753906 C 316.414062 292.945312 316.359375 292.808594 316.359375 292.425781 C 316.359375 292.042969 316.414062 291.90625 316.496094 292.070312 C 316.546875 292.261719 316.546875 292.589844 316.496094 292.753906 Z M 316.765625 294.664062 C 316.683594 294.882812 316.601562 294.800781 316.601562 294.5 C 316.574219 294.199219 316.65625 294.035156 316.738281 294.144531 C 316.820312 294.226562 316.847656 294.472656 316.765625 294.664062 Z M 317.039062 296.304688 C 316.957031 296.519531 316.875 296.441406 316.875 296.140625 C 316.847656 295.839844 316.929688 295.675781 317.011719 295.785156 C 317.09375 295.867188 317.121094 296.113281 317.039062 296.304688 Z M 317.3125 298.625 C 317.230469 298.898438 317.175781 298.734375 317.175781 298.296875 C 317.175781 297.832031 317.230469 297.640625 317.3125 297.804688 C 317.367188 297.996094 317.367188 298.378906 317.3125 298.625 Z M 317.585938 301.492188 C 317.53125 301.847656 317.476562 301.574219 317.476562 300.890625 C 317.476562 300.207031 317.53125 299.933594 317.585938 300.261719 C 317.640625 300.617188 317.640625 301.164062 317.585938 301.492188 Z M 317.859375 309.136719 C 317.804688 310.089844 317.777344 309.382812 317.777344 307.578125 C 317.777344 305.777344 317.804688 305.011719 317.859375 305.859375 C 317.914062 306.734375 317.914062 308.207031 317.859375 309.136719 Z M 317.585938 313.777344 C 317.53125 314.132812 317.476562 313.914062 317.476562 313.3125 C 317.449219 312.714844 317.503906 312.441406 317.585938 312.6875 C 317.640625 312.957031 317.640625 313.449219 317.585938 313.777344 Z M 317.3125 315.550781 C 317.230469 315.824219 317.175781 315.660156 317.175781 315.226562 C 317.175781 314.761719 317.230469 314.570312 317.3125 314.734375 C 317.367188 314.925781 317.367188 315.308594 317.3125 315.550781 Z M 317.039062 317.191406 C 316.957031 317.464844 316.902344 317.300781 316.902344 316.863281 C 316.902344 316.398438 316.957031 316.207031 317.039062 316.371094 C 317.09375 316.5625 317.09375 316.945312 317.039062 317.191406 Z M 316.574219 319.59375 C 316.414062 320.441406 316.195312 321.09375 316.140625 321.011719 C 316.085938 320.957031 316.167969 320.222656 316.332031 319.347656 C 316.519531 318.5 316.710938 317.875 316.765625 317.929688 C 316.847656 317.984375 316.738281 318.746094 316.574219 319.59375 Z M 315.949219 321.96875 C 315.867188 322.1875 315.785156 322.105469 315.785156 321.804688 C 315.757812 321.503906 315.839844 321.339844 315.921875 321.449219 C 316.003906 321.53125 316.03125 321.777344 315.949219 321.96875 Z M 315.484375 323.824219 C 315.320312 324.453125 315.128906 324.917969 315.074219 324.863281 C 315.019531 324.808594 315.101562 324.234375 315.265625 323.609375 C 315.429688 322.953125 315.621094 322.488281 315.675781 322.570312 C 315.730469 322.625 315.648438 323.199219 315.484375 323.824219 Z M 315.484375 323.824219 "/>
</g>
<path style=" stroke:none;fill-rule:nonzero;fill:rgb(27.449036%,47.839355%,66.668701%);fill-opacity:1;" d="M 202.0625 81.636719 C 189.355469 83.601562 184.273438 98.863281 193.292969 107.875 C 198.59375 113.171875 206.574219 113.9375 212.832031 109.730469 C 219.363281 105.390625 221.523438 96.734375 217.859375 89.71875 C 216.6875 87.507812 213.597656 84.394531 211.464844 83.328125 C 208.433594 81.800781 205.015625 81.199219 202.0625 81.636719 Z M 202.0625 81.636719 "/>
<path style=" stroke:none;fill-rule:nonzero;fill:rgb(27.449036%,47.839355%,66.668701%);fill-opacity:1;" d="M 182.277344 130.949219 C 178.234375 131.929688 174.652344 134.796875 172.792969 138.566406 C 171.507812 141.214844 171.070312 143.34375 171.261719 146.101562 C 171.644531 151.179688 174.734375 155.765625 179.242188 157.953125 C 185.75 161.144531 193.511719 159.125 197.527344 153.226562 C 199.140625 150.851562 199.90625 148.695312 200.070312 145.800781 C 200.644531 136.246094 191.597656 128.679688 182.277344 130.949219 Z M 182.277344 130.949219 "/>
<path style=" stroke:none;fill-rule:nonzero;fill:rgb(27.449036%,47.839355%,66.668701%);fill-opacity:1;" d="M 204.222656 178.949219 C 200.945312 179.902344 198.265625 182.171875 196.789062 185.335938 C 196.105469 186.8125 195.914062 187.605469 195.832031 189.488281 C 195.613281 194.375 198.046875 198.363281 202.582031 200.519531 C 204.25 201.285156 204.605469 201.367188 207.121094 201.367188 C 209.277344 201.339844 210.152344 201.230469 211.355469 200.738281 C 215.839844 198.960938 218.597656 194.867188 218.597656 190.035156 C 218.597656 185.257812 215.757812 181.050781 211.355469 179.359375 C 209.496094 178.621094 206 178.429688 204.222656 178.949219 Z M 204.222656 178.949219 "/>
<path style=" stroke:none;fill-rule:nonzero;fill:rgb(27.449036%,47.839355%,66.668701%);fill-opacity:1;" d="M 311 335.210938 C 310.835938 335.59375 310.863281 335.621094 311.136719 335.375 C 311.328125 335.183594 311.410156 334.964844 311.328125 334.882812 C 311.246094 334.800781 311.082031 334.9375 311 335.210938 Z M 311 335.210938 "/>
<path style=" stroke:none;fill-rule:nonzero;fill:rgb(27.449036%,47.839355%,66.668701%);fill-opacity:1;" d="M 310.453125 336.304688 C 310.289062 336.6875 310.316406 336.714844 310.589844 336.46875 C 310.78125 336.277344 310.863281 336.058594 310.78125 335.976562 C 310.699219 335.894531 310.535156 336.03125 310.453125 336.304688 Z M 310.453125 336.304688 "/>
<path style=" stroke:none;fill-rule:nonzero;fill:rgb(7.058716%,49.798584%,89.408875%);fill-opacity:1;" d="M 204.65625 80.878906 C 204.109375 80.878906 203.558594 80.90625 203.011719 80.957031 C 202.464844 81.011719 201.921875 81.09375 201.382812 81.199219 C 200.84375 81.308594 200.3125 81.441406 199.785156 81.601562 C 199.257812 81.761719 198.742188 81.945312 198.234375 82.15625 C 197.726562 82.367188 197.230469 82.601562 196.746094 82.859375 C 196.257812 83.117188 195.789062 83.402344 195.332031 83.707031 C 194.875 84.011719 194.433594 84.339844 194.007812 84.6875 C 193.582031 85.035156 193.175781 85.40625 192.789062 85.792969 C 192.398438 86.183594 192.03125 86.589844 191.679688 87.015625 C 191.332031 87.441406 191.003906 87.882812 190.699219 88.339844 C 190.394531 88.796875 190.113281 89.265625 189.851562 89.75 C 189.59375 90.234375 189.359375 90.734375 189.148438 91.242188 C 188.9375 91.75 188.753906 92.265625 188.59375 92.792969 C 188.433594 93.316406 188.300781 93.851562 188.195312 94.390625 C 188.085938 94.929688 188.003906 95.472656 187.953125 96.019531 C 187.898438 96.566406 187.871094 97.113281 187.871094 97.664062 C 187.871094 98.214844 187.898438 98.761719 187.953125 99.308594 C 188.003906 99.855469 188.085938 100.402344 188.195312 100.941406 C 188.300781 101.480469 188.433594 102.011719 188.59375 102.539062 C 188.753906 103.0625 188.9375 103.582031 189.148438 104.089844 C 189.359375 104.597656 189.59375 105.09375 189.851562 105.578125 C 190.113281 106.0625 190.394531 106.535156 190.699219 106.992188 C 191.003906 107.449219 191.332031 107.890625 191.679688 108.3125 C 192.03125 108.738281 192.398438 109.144531 192.789062 109.535156 C 193.175781 109.921875 193.582031 110.292969 194.007812 110.640625 C 194.433594 110.988281 194.875 111.316406 195.332031 111.621094 C 195.789062 111.929688 196.257812 112.210938 196.746094 112.46875 C 197.230469 112.730469 197.726562 112.964844 198.234375 113.175781 C 198.742188 113.382812 199.257812 113.570312 199.785156 113.730469 C 200.3125 113.886719 200.84375 114.023438 201.382812 114.128906 C 201.921875 114.238281 202.464844 114.316406 203.011719 114.371094 C 203.558594 114.425781 204.109375 114.453125 204.65625 114.453125 C 205.207031 114.453125 205.757812 114.425781 206.304688 114.371094 C 206.851562 114.316406 207.394531 114.238281 207.933594 114.128906 C 208.472656 114.023438 209.003906 113.886719 209.53125 113.730469 C 210.058594 113.570312 210.574219 113.382812 211.082031 113.175781 C 211.589844 112.964844 212.085938 112.730469 212.570312 112.46875 C 213.054688 112.210938 213.527344 111.929688 213.984375 111.621094 C 214.441406 111.316406 214.882812 110.988281 215.308594 110.640625 C 215.734375 110.292969 216.140625 109.921875 216.527344 109.535156 C 216.917969 109.144531 217.285156 108.738281 217.632812 108.3125 C 217.984375 107.890625 218.3125 107.449219 218.617188 106.992188 C 218.921875 106.535156 219.203125 106.0625 219.464844 105.578125 C 219.722656 105.09375 219.957031 104.597656 220.167969 104.089844 C 220.378906 103.582031 220.5625 103.0625 220.722656 102.539062 C 220.882812 102.011719 221.015625 101.480469 221.121094 100.941406 C 221.230469 100.402344 221.308594 99.855469 221.363281 99.308594 C 221.417969 98.761719 221.445312 98.214844 221.445312 97.664062 C 221.445312 97.113281 221.417969 96.566406 221.363281 96.019531 C 221.308594 95.472656 221.230469 94.929688 221.121094 94.390625 C 221.015625 93.851562 220.882812 93.316406 220.722656 92.792969 C 220.5625 92.265625 220.378906 91.75 220.167969 91.242188 C 219.957031 90.734375 219.722656 90.234375 219.464844 89.75 C 219.203125 89.265625 218.921875 88.796875 218.617188 88.339844 C 218.3125 87.882812 217.984375 87.441406 217.632812 87.015625 C 217.285156 86.589844 216.917969 86.183594 216.527344 85.792969 C 216.140625 85.40625 215.734375 85.035156 215.308594 84.6875 C 214.882812 84.339844 214.441406 84.011719 213.984375 83.707031 C 213.527344 83.402344 213.054688 83.117188 212.570312 82.859375 C 212.085938 82.601562 211.589844 82.367188 211.082031 82.15625 C 210.574219 81.945312 210.058594 81.761719 209.53125 81.601562 C 209.003906 81.441406 208.472656 81.308594 207.933594 81.199219 C 207.394531 81.09375 206.851562 81.011719 206.304688 80.957031 C 205.757812 80.90625 205.207031 80.878906 204.65625 80.878906 Z M 204.65625 80.878906 "/>
<path style=" stroke:none;fill-rule:nonzero;fill:rgb(90.979004%,23.139954%,33.329773%);fill-opacity:1;" d="M 185.183594 130.390625 C 184.214844 130.390625 183.253906 130.484375 182.304688 130.671875 C 181.355469 130.863281 180.429688 131.140625 179.535156 131.511719 C 178.640625 131.882812 177.789062 132.335938 176.984375 132.875 C 176.179688 133.414062 175.433594 134.027344 174.75 134.710938 C 174.0625 135.394531 173.453125 136.140625 172.914062 136.945312 C 172.375 137.753906 171.921875 138.601562 171.550781 139.496094 C 171.179688 140.390625 170.898438 141.316406 170.710938 142.265625 C 170.523438 143.214844 170.429688 144.175781 170.429688 145.144531 C 170.429688 146.113281 170.523438 147.070312 170.710938 148.023438 C 170.898438 148.972656 171.179688 149.894531 171.550781 150.789062 C 171.921875 151.683594 172.375 152.535156 172.914062 153.339844 C 173.453125 154.144531 174.0625 154.890625 174.75 155.578125 C 175.433594 156.261719 176.179688 156.871094 176.984375 157.410156 C 177.789062 157.949219 178.640625 158.402344 179.535156 158.773438 C 180.429688 159.144531 181.355469 159.425781 182.304688 159.613281 C 183.253906 159.804688 184.214844 159.898438 185.183594 159.898438 C 186.152344 159.898438 187.109375 159.804688 188.0625 159.613281 C 189.011719 159.425781 189.933594 159.144531 190.828125 158.773438 C 191.722656 158.402344 192.574219 157.949219 193.378906 157.410156 C 194.183594 156.871094 194.929688 156.261719 195.613281 155.578125 C 196.300781 154.890625 196.910156 154.144531 197.449219 153.339844 C 197.988281 152.535156 198.441406 151.683594 198.8125 150.789062 C 199.183594 149.894531 199.464844 148.972656 199.652344 148.023438 C 199.84375 147.070312 199.9375 146.113281 199.9375 145.144531 C 199.9375 144.175781 199.84375 143.214844 199.652344 142.265625 C 199.464844 141.316406 199.183594 140.390625 198.8125 139.496094 C 198.441406 138.601562 197.988281 137.753906 197.449219 136.945312 C 196.910156 136.140625 196.300781 135.394531 195.613281 134.710938 C 194.929688 134.027344 194.183594 133.414062 193.378906 132.875 C 192.574219 132.335938 191.722656 131.882812 190.828125 131.511719 C 189.933594 131.140625 189.011719 130.863281 188.0625 130.671875 C 187.109375 130.484375 186.152344 130.390625 185.183594 130.390625 Z M 185.183594 130.390625 "/>
<path style=" stroke:none;fill-rule:nonzero;fill:rgb(7.058716%,74.899292%,36.079407%);fill-opacity:1;" d="M 207.726562 177.796875 C 206.828125 177.796875 205.9375 177.886719 205.050781 178.0625 C 204.167969 178.234375 203.3125 178.496094 202.480469 178.839844 C 201.648438 179.1875 200.855469 179.609375 200.109375 180.109375 C 199.359375 180.609375 198.664062 181.175781 198.027344 181.816406 C 197.390625 182.453125 196.824219 183.144531 196.324219 183.894531 C 195.824219 184.640625 195.398438 185.433594 195.054688 186.265625 C 194.710938 187.097656 194.449219 187.953125 194.273438 188.835938 C 194.097656 189.722656 194.011719 190.613281 194.011719 191.515625 C 194.011719 192.414062 194.097656 193.304688 194.273438 194.191406 C 194.449219 195.074219 194.710938 195.929688 195.054688 196.761719 C 195.398438 197.59375 195.824219 198.386719 196.324219 199.132812 C 196.824219 199.882812 197.390625 200.578125 198.027344 201.214844 C 198.664062 201.851562 199.359375 202.417969 200.109375 202.917969 C 200.855469 203.417969 201.648438 203.84375 202.480469 204.1875 C 203.3125 204.53125 204.167969 204.792969 205.050781 204.96875 C 205.9375 205.144531 206.828125 205.230469 207.726562 205.230469 C 208.628906 205.230469 209.519531 205.144531 210.40625 204.96875 C 211.289062 204.792969 212.144531 204.53125 212.976562 204.1875 C 213.808594 203.84375 214.601562 203.417969 215.347656 202.917969 C 216.097656 202.417969 216.789062 201.851562 217.425781 201.214844 C 218.066406 200.578125 218.632812 199.882812 219.132812 199.132812 C 219.632812 198.386719 220.054688 197.59375 220.402344 196.761719 C 220.746094 195.929688 221.007812 195.074219 221.179688 194.191406 C 221.355469 193.304688 221.445312 192.414062 221.445312 191.515625 C 221.445312 190.613281 221.355469 189.722656 221.179688 188.835938 C 221.007812 187.953125 220.746094 187.097656 220.402344 186.265625 C 220.054688 185.433594 219.632812 184.640625 219.132812 183.894531 C 218.632812 183.144531 218.066406 182.453125 217.425781 181.816406 C 216.789062 181.175781 216.097656 180.609375 215.347656 180.109375 C 214.601562 179.609375 213.808594 179.1875 212.976562 178.839844 C 212.144531 178.496094 211.289062 178.234375 210.40625 178.0625 C 209.519531 177.886719 208.628906 177.796875 207.726562 177.796875 Z M 207.726562 177.796875 "/>
<path style=" stroke:none;fill-rule:nonzero;fill:rgb(100%,73.329163%,0%);fill-opacity:1;" d="M 183.472656 25.386719 C 182.753906 25.386719 182.035156 25.421875 181.320312 25.492188 C 180.605469 25.5625 179.894531 25.667969 179.191406 25.808594 C 178.488281 25.949219 177.789062 26.121094 177.101562 26.332031 C 176.414062 26.539062 175.738281 26.78125 175.078125 27.058594 C 174.414062 27.332031 173.765625 27.636719 173.128906 27.976562 C 172.496094 28.316406 171.882812 28.683594 171.285156 29.082031 C 170.6875 29.484375 170.109375 29.910156 169.554688 30.367188 C 169 30.820312 168.46875 31.304688 167.960938 31.8125 C 167.453125 32.320312 166.96875 32.851562 166.515625 33.40625 C 166.058594 33.960938 165.628906 34.539062 165.230469 35.136719 C 164.832031 35.734375 164.464844 36.347656 164.125 36.984375 C 163.785156 37.617188 163.480469 38.265625 163.203125 38.929688 C 162.929688 39.59375 162.6875 40.269531 162.480469 40.957031 C 162.269531 41.644531 162.097656 42.339844 161.957031 43.042969 C 161.816406 43.75 161.710938 44.457031 161.640625 45.171875 C 161.570312 45.886719 161.535156 46.605469 161.535156 47.324219 C 161.535156 48.042969 161.570312 48.757812 161.640625 49.472656 C 161.710938 50.1875 161.816406 50.898438 161.957031 51.601562 C 162.097656 52.308594 162.269531 53.003906 162.480469 53.691406 C 162.6875 54.378906 162.929688 55.054688 163.203125 55.71875 C 163.480469 56.382812 163.785156 57.03125 164.125 57.664062 C 164.464844 58.296875 164.832031 58.914062 165.230469 59.511719 C 165.628906 60.109375 166.058594 60.683594 166.515625 61.238281 C 166.96875 61.796875 167.453125 62.328125 167.960938 62.835938 C 168.46875 63.34375 169 63.824219 169.554688 64.28125 C 170.109375 64.738281 170.6875 65.164062 171.285156 65.5625 C 171.882812 65.960938 172.496094 66.332031 173.128906 66.671875 C 173.765625 67.007812 174.414062 67.316406 175.078125 67.589844 C 175.738281 67.867188 176.414062 68.105469 177.101562 68.316406 C 177.789062 68.523438 178.488281 68.699219 179.191406 68.839844 C 179.894531 68.980469 180.605469 69.085938 181.320312 69.15625 C 182.035156 69.226562 182.753906 69.261719 183.472656 69.261719 C 184.191406 69.261719 184.90625 69.226562 185.621094 69.15625 C 186.335938 69.085938 187.046875 68.980469 187.75 68.839844 C 188.457031 68.699219 189.152344 68.523438 189.839844 68.316406 C 190.527344 68.105469 191.203125 67.867188 191.867188 67.589844 C 192.53125 67.316406 193.179688 67.007812 193.8125 66.671875 C 194.445312 66.332031 195.0625 65.960938 195.660156 65.5625 C 196.257812 65.164062 196.832031 64.738281 197.386719 64.28125 C 197.941406 63.824219 198.476562 63.34375 198.984375 62.835938 C 199.492188 62.328125 199.972656 61.796875 200.429688 61.238281 C 200.882812 60.683594 201.3125 60.109375 201.710938 59.511719 C 202.109375 58.914062 202.480469 58.296875 202.816406 57.664062 C 203.15625 57.03125 203.464844 56.382812 203.738281 55.71875 C 204.011719 55.054688 204.253906 54.378906 204.464844 53.691406 C 204.671875 53.003906 204.847656 52.308594 204.988281 51.601562 C 205.125 50.898438 205.230469 50.1875 205.300781 49.472656 C 205.371094 48.757812 205.40625 48.042969 205.40625 47.324219 C 205.40625 46.605469 205.371094 45.886719 205.300781 45.171875 C 205.230469 44.457031 205.125 43.75 204.988281 43.042969 C 204.847656 42.339844 204.671875 41.644531 204.464844 40.957031 C 204.253906 40.269531 204.011719 39.59375 203.738281 38.929688 C 203.464844 38.265625 203.15625 37.617188 202.816406 36.984375 C 202.480469 36.347656 202.109375 35.734375 201.710938 35.136719 C 201.3125 34.539062 200.882812 33.960938 200.429688 33.40625 C 199.972656 32.851562 199.492188 32.320312 198.984375 31.8125 C 198.476562 31.304688 197.941406 30.820312 197.386719 30.367188 C 196.832031 29.910156 196.257812 29.484375 195.660156 29.082031 C 195.0625 28.683594 194.445312 28.316406 193.8125 27.976562 C 193.179688 27.636719 192.53125 27.332031 191.867188 27.058594 C 191.203125 26.78125 190.527344 26.539062 189.839844 26.332031 C 189.152344 26.121094 188.457031 25.949219 187.75 25.808594 C 187.046875 25.667969 186.335938 25.5625 185.621094 25.492188 C 184.90625 25.421875 184.191406 25.386719 183.472656 25.386719 Z M 183.472656 25.386719 "/>
</g>
</svg>
